<?xml version="1.0" encoding="UTF-8" standalone="no"?>
<svg
   inkscape:export-ydpi="148.96899"
   inkscape:export-xdpi="148.96899"
   inkscape:export-filename="C:\Users\athaa\OneDrive\Documents\altaf.CSS\background.png"
   width="297mm"
   height="80mm"
   viewBox="0 0 297 80"
   version="1.1"
   id="svg8"
   sodipodi:docname="background-projects-path.svg"
   inkscape:version="1.1.1 (3bf5ae0d25, 2021-09-20)"
   xmlns:inkscape="http://www.inkscape.org/namespaces/inkscape"
   xmlns:sodipodi="http://sodipodi.sourceforge.net/DTD/sodipodi-0.dtd"
   xmlns:xlink="http://www.w3.org/1999/xlink"
   xmlns="http://www.w3.org/2000/svg"
   xmlns:svg="http://www.w3.org/2000/svg"
   xmlns:rdf="http://www.w3.org/1999/02/22-rdf-syntax-ns#"
   xmlns:cc="http://creativecommons.org/ns#"
   xmlns:dc="http://purl.org/dc/elements/1.1/">
  <defs
     id="defs2">
    <linearGradient
       inkscape:collect="always"
       id="linearGradient1028">
      <stop
         style="stop-color:#059b3e;stop-opacity:1;"
         offset="0"
         id="stop1024" />
      <stop
         style="stop-color:#04aa6d;stop-opacity:1"
         offset="1"
         id="stop1026" />
    </linearGradient>
    <linearGradient
       inkscape:collect="always"
       xlink:href="#linearGradient1028"
       id="linearGradient1030"
       x1="0"
       y1="1.766066e-08"
       x2="297"
       y2="80"
       gradientUnits="userSpaceOnUse" />
  </defs>
  <sodipodi:namedview
     inkscape:snap-global="true"
     id="base"
     pagecolor="#ffffff"
     bordercolor="#666666"
     borderopacity="1.0"
     inkscape:pageopacity="0.0"
     inkscape:pageshadow="2"
     inkscape:zoom="0.49497475"
     inkscape:cx="540.43161"
     inkscape:cy="186.87822"
     inkscape:document-units="mm"
     inkscape:current-layer="text1296"
     inkscape:document-rotation="0"
     showgrid="false"
     inkscape:snap-bbox="true"
     inkscape:snap-intersection-paths="true"
     inkscape:object-paths="true"
     inkscape:snap-bbox-midpoints="true"
     inkscape:snap-bbox-edge-midpoints="true"
     inkscape:bbox-nodes="true"
     inkscape:bbox-paths="true"
     inkscape:snap-midpoints="true"
     inkscape:snap-smooth-nodes="true"
     inkscape:window-width="1366"
     inkscape:window-height="705"
     inkscape:window-x="-8"
     inkscape:window-y="-8"
     inkscape:window-maximized="1"
     showguides="true"
     inkscape:guide-bbox="true"
     inkscape:pagecheckerboard="0">
    <sodipodi:guide
       position="0,80"
       orientation="0,1122.5197"
       id="guide962" />
    <sodipodi:guide
       position="297,80"
       orientation="302.3622,0"
       id="guide964" />
    <sodipodi:guide
       position="297,0"
       orientation="0,-1122.5197"
       id="guide966" />
    <sodipodi:guide
       position="0,0"
       orientation="-302.3622,0"
       id="guide968" />
  </sodipodi:namedview>
  <metadata
     id="metadata5">
    <rdf:RDF>
      <cc:Work
         rdf:about="">
        <dc:format>image/svg+xml</dc:format>
        <dc:type
           rdf:resource="http://purl.org/dc/dcmitype/StillImage" />
      </cc:Work>
    </rdf:RDF>
  </metadata>
  <g
     style="display:inline"
     inkscape:label="Main Layer"
     inkscape:groupmode="layer"
     id="layer1">
    <rect
       style="fill:url(#linearGradient1030);stroke-width:1.279;stroke-linejoin:round;stroke-dashoffset:1.02047;stroke-opacity:0.379032;stop-color:#000000;fill-opacity:1"
       id="rect970"
       width="297"
       height="80"
       x="0"
       y="1.766066e-08" />
    <g
       aria-label="projects"
       id="text1296"
       style="font-size:50.8px;line-height:1.25;font-family:Al;-inkscape-font-specification:Al;text-align:end;text-anchor:end;stroke-width:0.264583">
      <path
         d="m 114.1119,38.99593 h 5.2832 v 4.318 q 2.794,-4.9276 8.7376,-4.9276 4.9276,0 7.9756,3.1496 3.048,3.0988 3.048,8.9916 0,3.6576 -1.524,6.4516 -1.4732,2.793999 -4.064,4.317999 -2.54,1.524 -5.6896,1.524 -2.9464,0 -5.1308,-1.016 -2.1336,-1.0668 -3.3528,-2.9972 l 0.0508,15.8496 h -5.334 z m 12.4968,19.202399 q 3.302,0 5.08,-2.082799 1.778,-2.1336 1.778,-5.4356 0,-3.4544 -1.778,-5.4864 -1.7272,-2.0828 -5.08,-2.0828 -1.8288,0 -3.4544,0.9144 -1.5748,0.8636 -2.54,2.54 -0.9144,1.6256 -0.9144,3.81 v 0.3556 q 0,2.1844 0.9144,3.9116 0.9652,1.6764 2.54,2.6416 1.5748,0.914399 3.4544,0.914399 z"
         style="font-family:Alata;-inkscape-font-specification:Alata;fill:#ffffff;fill-opacity:0.181452"
         id="path1205" />
      <path
         d="m 144.84583,38.99593 h 5.4864 v 4.572 q 0.8128,-2.3368 2.6416,-3.7592 1.8288,-1.4224 4.1656,-1.4224 1.6256,0 2.2352,0.3048 l -0.762,5.5372 q -0.4572,-0.3048 -1.9812,-0.3048 -2.3876,0 -4.3688,1.524 -1.9304,1.524 -1.9304,4.8768 v 11.988799 h -5.4864 z"
         style="font-family:Alata;-inkscape-font-specification:Alata;fill:#ffffff;fill-opacity:0.181452"
         id="path1207" />
      <path
         d="m 174.10659,62.821129 q -3.6068,0 -6.4008,-1.6256 -2.794,-1.6256 -4.318,-4.419599 -1.524,-2.794 -1.524,-6.1976 0,-3.3528 1.4732,-6.1468 1.524,-2.794 4.318,-4.4196 2.794,-1.6256 6.4516,-1.6256 3.6576,0 6.4008,1.6256 2.794,1.6256 4.2672,4.4196 1.524,2.794 1.524,6.1468 0,3.4036 -1.524,6.1976 -1.524,2.793999 -4.318,4.419599 -2.7432,1.6256 -6.35,1.6256 z m 0.1524,-4.4704 q 2.9464,0 4.6228,-2.184399 1.7272,-2.1844 1.7272,-5.4864 0,-3.302 -1.8288,-5.5372 -1.8288,-2.286 -4.826,-2.286 -2.8956,0 -4.6736,2.2352 -1.7272,2.2352 -1.7272,5.588 0,3.2512 1.8796,5.4864 1.8796,2.184399 4.826,2.184399 z"
         style="font-family:Alata;-inkscape-font-specification:Alata;fill:#ffffff;fill-opacity:0.181452"
         id="path1209" />
      <path
         d="m 189.95611,74.708329 q -1.8796,0 -4.064,-0.5588 l 1.1684,-4.9276 q 0.8128,0.3048 1.5748,0.508 0.762,0.254 1.4224,0.254 1.6764,0 2.3876,-0.9144 0.762,-0.9144 0.762,-3.7084 V 38.99593 h 5.4864 v 26.619199 q 0,4.4196 -2.286,6.7564 -2.286,2.3368 -6.4516,2.3368 z m 5.6896,-40.081199 q -1.5748,0 -2.6416,-1.0668 -1.0668,-1.0668 -1.0668,-2.6416 0,-1.4224 1.0668,-2.4384 1.0668,-1.016 2.6416,-1.016 1.524,0 2.5908,1.016 1.0668,1.016 1.0668,2.4384 0,1.5748 -1.0668,2.6416 -1.016,1.0668 -2.5908,1.0668 z"
         style="font-family:Alata;-inkscape-font-specification:Alata;fill:#ffffff;fill-opacity:0.181452"
         id="path1211" />
      <path
         d="m 217.33727,62.821129 q -4.1656,0 -6.9596,-1.6256 -2.794,-1.6764 -4.1148,-4.419599 -1.3208,-2.794 -1.3208,-6.096 0,-3.7084 1.524,-6.5024 1.5748,-2.794 4.318,-4.2672 2.7432,-1.524 6.1976,-1.524 5.3848,0 7.9756,2.9972 2.6416,2.9464 2.6416,8.3312 0,1.3716 -0.1524,2.8448 h -16.764 q 0.5588,3.0988 2.1844,4.4704 1.6764,1.371599 4.6228,1.371599 2.4384,0 4.0132,-0.4064 1.5748,-0.4064 2.8956,-1.117599 l 1.6764,3.911599 q -1.27,0.8128 -3.4544,1.4224 -2.1844,0.6096 -5.2832,0.6096 z m 4.9276,-14.071599 q 0.0508,-3.1496 -1.3716,-4.4196 -1.4224,-1.3208 -4.064,-1.3208 -5.334,0 -6.1468,5.7404 z"
         style="font-family:Alata;-inkscape-font-specification:Alata;fill:#ffffff;fill-opacity:0.181452"
         id="path1213" />
      <path
         d="m 244.21045,62.821129 q -3.4544,0 -6.2484,-1.4732 -2.7432,-1.524 -4.3688,-4.317999 -1.6256,-2.8448 -1.6256,-6.6548 0,-3.6068 1.4732,-6.2992 1.524,-2.7432 4.2164,-4.2164 2.7432,-1.4732 6.2992,-1.4732 2.6924,0 4.6228,0.7112 1.9812,0.6604 3.0988,1.6764 l -2.4384,4.4196 q -2.1336,-2.1336 -4.826,-2.1336 -3.2512,0 -4.9784,1.9812 -1.6764,1.9812 -1.6764,5.2832 0,3.7592 1.7272,5.842 1.778,2.082799 4.9276,2.082799 1.5748,0 3.048,-0.4572 1.524,-0.4572 2.3368,-1.066799 l 1.9812,3.860799 q -1.1176,0.8636 -3.1496,1.5748 -1.9812,0.6604 -4.4196,0.6604 z"
         style="font-family:Alata;-inkscape-font-specification:Alata;fill:#ffffff;fill-opacity:0.181452"
         id="path1215" />
      <path
         d="m 259.04404,43.46633 h -4.1148 v -4.4704 h 4.1148 v -9.4996 l 5.5372,-1.2192 v 10.7188 h 5.3848 v 4.4704 h -5.3848 v 18.846799 h -5.5372 z"
         style="font-family:Alata;-inkscape-font-specification:Alata;fill:#ffffff;fill-opacity:0.181452"
         id="path1217" />
      <path
         d="m 282.46275,62.821129 q -2.4384,0 -5.08,-0.6096 -2.5908,-0.6604 -3.7084,-1.524 l 1.8288,-4.317999 q 3.048,2.133599 6.9596,2.133599 3.9116,0 3.9116,-2.285999 0,-1.016 -0.8128,-1.5748 -0.8128,-0.5588 -2.8956,-1.3208 l -1.9304,-0.7112 q -3.048,-1.2192 -4.826,-2.8956 -1.778,-1.7272 -1.778,-4.5212 0,-3.2004 2.4892,-4.9784 2.54,-1.8288 6.7564,-1.8288 2.0828,0 4.064,0.4572 2.032,0.4572 3.0988,1.1684 l -1.9812,4.3688 q -0.6604,-0.6604 -2.1336,-1.1176 -1.4224,-0.508 -3.2004,-0.508 -3.6068,0 -3.6068,2.1844 0,1.2192 0.9652,1.8796 0.9652,0.6096 3.1496,1.3716 0.2032,0.0508 1.5748,0.5588 3.2512,1.27 4.826,2.8956 1.5748,1.6256 1.5748,4.1656 0,3.454399 -2.6416,5.232399 -2.5908,1.778 -6.604,1.778 z"
         style="font-family:Alata;-inkscape-font-specification:Alata;fill:#ffffff;fill-opacity:0.181452"
         id="path1219" />
    </g>
  </g>
</svg>
