<?xml version="1.0" encoding="UTF-8" standalone="no"?>
<svg
   inkscape:export-ydpi="148.96899"
   inkscape:export-xdpi="148.96899"
   inkscape:export-filename="C:\Users\athaa\OneDrive\Documents\altaf.CSS\background.png"
   width="297mm"
   height="80mm"
   viewBox="0 0 297 80"
   version="1.1"
   id="svg8"
   sodipodi:docname="background-about-path.svg"
   inkscape:version="1.1.1 (3bf5ae0d25, 2021-09-20)"
   xmlns:inkscape="http://www.inkscape.org/namespaces/inkscape"
   xmlns:sodipodi="http://sodipodi.sourceforge.net/DTD/sodipodi-0.dtd"
   xmlns:xlink="http://www.w3.org/1999/xlink"
   xmlns="http://www.w3.org/2000/svg"
   xmlns:svg="http://www.w3.org/2000/svg"
   xmlns:rdf="http://www.w3.org/1999/02/22-rdf-syntax-ns#"
   xmlns:cc="http://creativecommons.org/ns#"
   xmlns:dc="http://purl.org/dc/elements/1.1/">
  <defs
     id="defs2">
    <linearGradient
       inkscape:collect="always"
       id="linearGradient1028">
      <stop
         style="stop-color:#059b3e;stop-opacity:1;"
         offset="0"
         id="stop1024" />
      <stop
         style="stop-color:#04aa6d;stop-opacity:1"
         offset="1"
         id="stop1026" />
    </linearGradient>
    <linearGradient
       inkscape:collect="always"
       xlink:href="#linearGradient1028"
       id="linearGradient1030"
       x1="0"
       y1="1.766066e-08"
       x2="297"
       y2="80"
       gradientUnits="userSpaceOnUse" />
  </defs>
  <sodipodi:namedview
     inkscape:snap-global="true"
     id="base"
     pagecolor="#ffffff"
     bordercolor="#666666"
     borderopacity="1.0"
     inkscape:pageopacity="0.0"
     inkscape:pageshadow="2"
     inkscape:zoom="0.49497475"
     inkscape:cx="540.43161"
     inkscape:cy="186.87822"
     inkscape:document-units="mm"
     inkscape:current-layer="layer1"
     inkscape:document-rotation="0"
     showgrid="false"
     inkscape:snap-bbox="true"
     inkscape:snap-intersection-paths="true"
     inkscape:object-paths="true"
     inkscape:snap-bbox-midpoints="true"
     inkscape:snap-bbox-edge-midpoints="true"
     inkscape:bbox-nodes="true"
     inkscape:bbox-paths="true"
     inkscape:snap-midpoints="true"
     inkscape:snap-smooth-nodes="true"
     inkscape:window-width="1366"
     inkscape:window-height="705"
     inkscape:window-x="-8"
     inkscape:window-y="-8"
     inkscape:window-maximized="1"
     showguides="true"
     inkscape:guide-bbox="true"
     inkscape:pagecheckerboard="0">
    <sodipodi:guide
       position="0,80"
       orientation="0,1122.5197"
       id="guide962" />
    <sodipodi:guide
       position="297,80"
       orientation="302.3622,0"
       id="guide964" />
    <sodipodi:guide
       position="297,0"
       orientation="0,-1122.5197"
       id="guide966" />
    <sodipodi:guide
       position="0,0"
       orientation="-302.3622,0"
       id="guide968" />
  </sodipodi:namedview>
  <metadata
     id="metadata5">
    <rdf:RDF>
      <cc:Work
         rdf:about="">
        <dc:format>image/svg+xml</dc:format>
        <dc:type
           rdf:resource="http://purl.org/dc/dcmitype/StillImage" />
      </cc:Work>
    </rdf:RDF>
  </metadata>
  <g
     style="display:inline"
     inkscape:label="Main Layer"
     inkscape:groupmode="layer"
     id="layer1">
    <rect
       style="fill:url(#linearGradient1030);stroke-width:1.279;stroke-linejoin:round;stroke-dashoffset:1.02047;stroke-opacity:0.379032;stop-color:#000000;fill-opacity:1"
       id="rect970"
       width="297"
       height="80"
       x="0"
       y="1.766066e-08" />
    <g
       aria-label="about"
       id="text1296"
       style="font-size:50.8px;line-height:1.25;font-family:Al;-inkscape-font-specification:Al;text-align:end;text-anchor:end;stroke-width:0.264583">
      <path
         d="m 169.33132,72.554333 q -3.1496,0 -5.842,-1.4732 -2.6416,-1.524 -4.2672,-4.2672 -1.5748,-2.794 -1.5748,-6.5024 0,-3.657599 1.3716,-6.400799 1.4224,-2.7432 4.0132,-4.2672 2.5908,-1.524 6.096,-1.524 2.032,0 3.81,0.7112 1.778,0.7112 2.9972,1.778 1.2192,1.016 1.6256,2.032 l 0.1016,-3.9116 h 5.2324 v 23.317199 h -5.1816 l -0.1016,-4.1148 q -0.8636,1.8288 -3.1496,3.2512 -2.286,1.3716 -5.1308,1.3716 z m 0.9144,-4.572 q 2.8956,0 4.8768,-1.9812 1.9812,-2.032 1.9812,-5.2832 v -0.3556 q 0,-2.184399 -0.9144,-3.911599 -0.9144,-1.7272 -2.4892,-2.6924 -1.5748,-0.9652 -3.4544,-0.9652 -3.2512,0 -5.0292,2.1336 -1.778,2.0828 -1.778,5.435599 0,3.4036 1.7272,5.5372 1.778,2.0828 5.08,2.0828 z"
         style="font-family:Alata;-inkscape-font-specification:Alata;fill:#ffffff;fill-opacity:0.181452"
         id="path1623" />
      <path
         d="m 204.07851,72.554333 q -2.8448,0 -5.1308,-1.3716 -2.2352,-1.4224 -3.0988,-3.2512 l -0.1016,4.1148 h -5.2832 V 34.708334 h 5.3848 v 14.3764 l -0.254,3.9624 q 0.8636,-2.032 3.3528,-3.4544 2.54,-1.4732 5.4864,-1.4732 3.4544,0 5.9944,1.5748 2.5908,1.524 3.9624,4.318 1.3716,2.7432 1.3716,6.400799 0,3.7084 -1.6256,6.4516 -1.5748,2.7432 -4.2672,4.2164 -2.6416,1.4732 -5.7912,1.4732 z m -0.9144,-4.572 q 3.302,0 5.08,-2.0828 1.778,-2.1336 1.778,-5.4864 0,-3.403599 -1.778,-5.486399 -1.7272,-2.1336 -5.08,-2.1336 -2.8956,0 -4.8768,2.032 -1.9812,1.9812 -1.9812,5.232399 v 0.3556 q 0,2.1844 0.9144,3.9116 0.9652,1.7272 2.4892,2.6924 1.5748,0.9652 3.4544,0.9652 z"
         style="font-family:Alata;-inkscape-font-specification:Alata;fill:#ffffff;fill-opacity:0.181452"
         id="path1625" />
      <path
         d="m 232.47564,72.554333 q -3.6068,0 -6.4008,-1.6256 -2.794,-1.6256 -4.318,-4.4196 -1.524,-2.794 -1.524,-6.1976 0,-3.352799 1.4732,-6.146799 1.524,-2.794 4.318,-4.4196 2.794,-1.6256 6.4516,-1.6256 3.6576,0 6.4008,1.6256 2.794,1.6256 4.2672,4.4196 1.524,2.794 1.524,6.146799 0,3.4036 -1.524,6.1976 -1.524,2.794 -4.318,4.4196 -2.7432,1.6256 -6.35,1.6256 z m 0.1524,-4.4704 q 2.9464,0 4.6228,-2.1844 1.7272,-2.1844 1.7272,-5.4864 0,-3.301999 -1.8288,-5.537199 -1.8288,-2.286 -4.826,-2.286 -2.8956,0 -4.6736,2.2352 -1.7272,2.2352 -1.7272,5.587999 0,3.2512 1.8796,5.4864 1.8796,2.1844 4.826,2.1844 z"
         style="font-family:Alata;-inkscape-font-specification:Alata;fill:#ffffff;fill-opacity:0.181452"
         id="path1627" />
      <path
         d="m 258.58675,72.554333 q -4.826,0 -6.6548,-2.8448 -1.778,-2.8448 -1.778,-7.9248 V 48.729134 h 5.4864 v 11.683999 q 0,2.8956 0.3048,4.5212 0.3556,1.5748 1.3208,2.3368 1.016,0.762 2.9972,0.762 1.4224,0 2.7432,-0.8128 1.3208,-0.8128 2.1336,-2.1844 0.8636,-1.4224 0.8636,-3.0988 V 48.729134 h 5.4356 v 23.317199 h -4.4704 l -0.6096,-3.4036 q -1.27,1.9812 -3.2004,2.9464 -1.8796,0.9652 -4.572,0.9652 z"
         style="font-family:Alata;-inkscape-font-specification:Alata;fill:#ffffff;fill-opacity:0.181452"
         id="path1629" />
      <path
         d="m 280.78634,53.199534 h -4.1148 v -4.4704 h 4.1148 v -9.4996 l 5.5372,-1.2192 v 10.7188 h 5.3848 v 4.4704 h -5.3848 v 18.846799 h -5.5372 z"
         style="font-family:Alata;-inkscape-font-specification:Alata;fill:#ffffff;fill-opacity:0.181452"
         id="path1631" />
    </g>
  </g>
</svg>
